<svg xmlns="http://www.w3.org/2000/svg" enable-background="new 0 0 512 512" version="1" viewBox="0 0 512 512" id="adobe-lightroom"><path fill="#3DF0F0" d="M93.867,12.801h324.267c51.733,0,93.867,42.133,93.867,93.867v311.467
			c0,51.733-42.133,93.867-93.867,93.867H93.867c-51.733,0-93.867-42.133-93.867-93.867V106.668
			C0.001,54.934,42.134,12.801,93.867,12.801"></path><path fill="#022326" d="M98.133,34.134h315.733c42.667,0,76.8,34.133,76.8,76.8v302.933c0,42.667-34.133,76.8-76.8,76.8H98.133
			c-42.667,0-76.8-34.133-76.8-76.8V110.934C21.333,68.268,55.466,34.134,98.133,34.134"></path><g><path fill="#FFF" d="M141.69,379.199c-2.667,0-3.2-1.067-3.2-3.2V146.665c0-1.6,0.533-2.667,2.667-2.667h33.6
				c1.6,0,2.133,0.533,2.133,2.667v197.333h88c1.6,0,2.133,0.533,2.133,2.667l-5.333,30.405c0,1.595-1.6,2.667-3.2,2.667h-116.8
				V379.199z M299.556,376.532c0,2.133,1.067,2.667,2.667,2.667h33.067c2.133,0,2.667-1.067,2.667-2.667v-134.4
				c7.467-3.2,27.2-4.8,40.533-4.267c2.133,0,2.667-0.533,2.667-2.133v-30.933c0-1.6-1.067-2.133-2.667-2.133
				c-26.667,0-53.333,5.333-78.4,14.933c-1.067,0-1.6,1.6-1.6,2.667c1.067,12.267,1.067,18.133,1.067,20.8V376.532z"></path><path fill="#3DF0F0" d="M141.69,379.199c-2.667,0-3.2-1.067-3.2-3.2V146.665c0-1.6,0.533-2.667,2.667-2.667h33.6
				c1.6,0,2.133,0.533,2.133,2.667v197.333h88c1.6,0,2.133,0.533,2.133,2.667l-5.333,30.405c0,1.595-1.6,2.667-3.2,2.667h-116.8
				V379.199z M299.556,376.532c0,2.133,1.067,2.667,2.667,2.667h33.067c2.133,0,2.667-1.067,2.667-2.667v-134.4
				c7.467-3.2,27.2-4.8,40.533-4.267c2.133,0,2.667-0.533,2.667-2.133v-30.933c0-1.6-1.067-2.133-2.667-2.133
				c-26.667,0-53.333,5.333-78.4,14.933c-1.067,0-1.6,1.6-1.6,2.667c1.067,12.267,1.067,18.133,1.067,20.8V376.532z" opacity=".15"></path></g></svg>